<svg xmlns="http://www.w3.org/2000/svg" xmlns:xlink="http://www.w3.org/1999/xlink" width="425pt" height="340pt" viewBox="0 0 425 340" version="1.1">
        <g id="surface1">
                <path style="fill:none;stroke-width:317500;stroke-linecap:butt;stroke-linejoin:miter;stroke:rgb(23.921204%,32.940674%,41.567993%);stroke-opacity:1;stroke-miterlimit:8;" d="M 6.735192 20.430082 L 1444389.708537 24540.738482 " transform="matrix(0.0000556777,0.0000556777,-0.0000556777,0.0000556777,130.8992,166.7563)" />
                <path style="fill:none;stroke-width:317500;stroke-linecap:butt;stroke-linejoin:miter;stroke:rgb(23.921204%,32.548523%,41.567993%);stroke-opacity:0.3294;stroke-miterlimit:8;" d="M -0.98425 23.733124 L 371970.097597 376856.533566 " transform="matrix(0.0000787402,0,0,0.0000787402,98.07039,133.3536)" />
                <path style="fill:none;stroke-width:317500;stroke-linecap:butt;stroke-linejoin:miter;stroke:rgb(23.921204%,32.940674%,41.567993%);stroke-opacity:1;stroke-miterlimit:8;" d="M -3.571875 4.683125 L 1500134.270746 2558756.944995 " transform="matrix(-0.0000787402,0,0,0.0000787402,360.738,68.4176)" />
                <path style="fill-rule:nonzero;fill:rgb(100%,100%,100%);fill-opacity:1;stroke-width:317500;stroke-linecap:butt;stroke-linejoin:miter;stroke:rgb(23.921204%,32.940674%,41.567993%);stroke-opacity:1;stroke-miterlimit:8;" d="M 18.732499 527211.749379 C 18.732499 236054.336821 236010.521823 12.938125 527217.543754 12.938125 C 818374.956312 12.938125 1054366.745635 236054.336821 1054366.745635 527211.749379 C 1054366.745635 818369.161937 818374.956312 1054410.560634 527217.543754 1054410.560634 C 236010.521823 1054410.560634 18.732499 818369.161937 18.732499 527211.749379 Z M 18.732499 527211.749379 " transform="matrix(0.0000787402,0,0,0.0000787402,197.7954,236.3857)" />
                <path style="fill:none;stroke-width:317500;stroke-linecap:butt;stroke-linejoin:miter;stroke:rgb(23.921204%,32.940674%,41.567993%);stroke-opacity:1;stroke-miterlimit:8;" d="M 11.618206 -6.679065 L 1057191.209407 1293886.847876 " transform="matrix(0.0000556777,0.0000556777,0.0000556777,-0.0000556777,222.5466,80.5107)" />
                <path style="fill-rule:nonzero;fill:rgb(100%,100%,100%);fill-opacity:1;stroke-width:317500;stroke-linecap:butt;stroke-linejoin:miter;stroke:rgb(23.921204%,32.940674%,41.567993%);stroke-opacity:1;stroke-miterlimit:8;" d="M 15.5575 583860.811941 C 15.5575 261399.88476 261407.34601 8.09625 583868.273191 8.09625 C 906329.200372 8.09625 1167720.988883 261399.88476 1167720.988883 583860.811941 C 1167720.988883 906321.739123 906329.200372 1167713.527633 583868.273191 1167713.527633 C 261407.34601 1167713.527633 15.5575 906321.739123 15.5575 583860.811941 Z M 15.5575 583860.811941 " transform="matrix(0.0000787402,0,0,0.0000787402,314.7644,21.2728)" />
                <path style="fill:none;stroke-width:317500;stroke-linecap:butt;stroke-linejoin:miter;stroke:rgb(23.921204%,32.548523%,41.567993%);stroke-opacity:0.3216;stroke-miterlimit:8;" d="M -10.969625 3.254375 L 1930885.062337 195861.060607 " transform="matrix(0.0000787402,0,0,-0.0000787402,64.91102,96.5276)" />
                <path style="fill-rule:nonzero;fill:rgb(23.921204%,32.940674%,41.567993%);fill-opacity:1;stroke-width:76200;stroke-linecap:butt;stroke-linejoin:miter;stroke:rgb(100%,100%,100%);stroke-opacity:1;stroke-miterlimit:8;" d="M -6.25475 646081.7612 C -6.25475 289241.538244 289266.001618 18.891249 646056.615201 18.891249 C 1002896.838157 18.891249 1292169.094526 289241.538244 1292169.094526 646081.7612 C 1292169.094526 1002872.374783 1002896.838157 1292144.631151 646056.615201 1292144.631151 C 289266.001618 1292144.631151 -6.25475 1002872.374783 -6.25475 646081.7612 Z M -6.25475 646081.7612 " transform="matrix(0.0000787402,0,0,0.0000787402,11.99268,46.7407)" />
        </g>
</svg>